<?xml version="1.0" encoding="UTF-8"?>
<svg id="b" data-name="Layer 2" xmlns="http://www.w3.org/2000/svg" width="644.22" height="135.36" viewBox="0 0 644.22 135.36">
  <g id="c" data-name="b">
    <g>
      <rect width="135.36" height="135.36" rx="13.15" ry="13.15" style="fill: #fff;"/>
      <rect x="76.76" y="78.99" width="35.5" height="35.5" rx="3.45" ry="3.45" transform="translate(-21.83 27.78) rotate(-15.01)"/>
      <path d="M179.38,102.66c-3.71,0-7.19-.7-10.44-2.1s-6.08-3.48-8.48-6.25-4.21-6.15-5.43-10.17l11.58-4.56c.85,3.22,2.34,5.93,4.47,8.11,2.13,2.19,4.92,3.28,8.39,3.28,1.7,0,3.31-.29,4.83-.87s2.75-1.44,3.69-2.6c.94-1.15,1.41-2.58,1.41-4.29s-.4-3.05-1.19-4.24c-.79-1.19-2.11-2.31-3.97-3.37-1.85-1.06-4.36-2.17-7.52-3.33l-4.01-1.46c-1.76-.67-3.54-1.5-5.33-2.51-1.79-1-3.43-2.25-4.92-3.74-1.49-1.49-2.69-3.21-3.6-5.15-.91-1.94-1.37-4.16-1.37-6.66,0-3.4.88-6.49,2.64-9.25,1.76-2.77,4.22-4.97,7.39-6.61,3.16-1.64,6.84-2.46,11.03-2.46s7.99.75,10.85,2.23c2.86,1.49,5.09,3.3,6.7,5.43s2.75,4.19,3.42,6.2l-10.85,4.56c-.36-1.22-.97-2.37-1.82-3.46s-1.95-1.97-3.28-2.64c-1.34-.67-2.95-1-4.83-1-1.76,0-3.34.29-4.74.87-1.4.58-2.49,1.37-3.28,2.37s-1.19,2.17-1.19,3.51c0,1.95.83,3.62,2.51,5.01,1.67,1.4,4.36,2.71,8.07,3.92l4.1,1.37c2.31.79,4.51,1.72,6.61,2.78,2.1,1.06,3.97,2.39,5.61,3.97s2.93,3.46,3.88,5.65c.94,2.19,1.41,4.8,1.41,7.84,0,3.34-.67,6.26-2.01,8.75s-3.1,4.53-5.29,6.11c-2.19,1.58-4.6,2.77-7.25,3.56s-5.24,1.19-7.8,1.19h0Z" style="fill: #fff;"/>
      <path d="M239.56,120.9v-18.69l.73-6.56h-.73c-.73,1.22-1.76,2.36-3.1,3.42-1.34,1.06-2.92,1.93-4.74,2.6s-3.86,1-6.11,1c-4.26,0-8.09-1.05-11.49-3.15-3.4-2.1-6.09-5-8.07-8.71s-2.96-7.99-2.96-12.86.99-9.15,2.96-12.86,4.66-6.61,8.07-8.71c3.4-2.1,7.23-3.15,11.49-3.15,2.25,0,4.29.33,6.11,1s3.4,1.55,4.74,2.64c1.34,1.09,2.37,2.25,3.1,3.46h.73v-5.65h11.12v66.2h-11.85v.02ZM227.62,91.63c2.25,0,4.33-.58,6.25-1.73,1.91-1.15,3.46-2.75,4.65-4.79,1.19-2.04,1.78-4.42,1.78-7.16s-.59-5.12-1.78-7.16-2.74-3.62-4.65-4.74c-1.91-1.12-4-1.69-6.25-1.69s-4.24.56-6.15,1.69c-1.91,1.13-3.46,2.69-4.65,4.7-1.19,2.01-1.78,4.41-1.78,7.2s.59,5.14,1.78,7.2c1.19,2.07,2.74,3.66,4.65,4.79,1.91,1.13,3.97,1.69,6.15,1.69Z" style="fill: #fff;"/>
      <path d="M274.21,102.66c-5.71,0-10-1.76-12.86-5.29-2.86-3.52-4.29-8.33-4.29-14.41v-28.27h11.94v26.81c0,3.16.78,5.64,2.33,7.43s3.54,2.69,5.97,2.69,4.38-.59,6.02-1.78c1.64-1.19,2.9-2.78,3.78-4.79s1.32-4.22,1.32-6.66v-23.71h11.94v46.5h-11.22v-5.84h-.73c-.91,1.46-2.1,2.74-3.56,3.83-1.46,1.09-3.09,1.95-4.88,2.55-1.79.61-3.72.91-5.79.91l.03.03Z" style="fill: #fff;"/>
      <path d="M320.71,102.66c-3.28,0-6.19-.65-8.71-1.96s-4.51-3.15-5.97-5.52c-1.46-2.37-2.19-5.11-2.19-8.21s.83-5.99,2.51-8.3c1.67-2.31,3.92-4.1,6.75-5.38s5.97-1.91,9.44-1.91c1.88,0,3.6.11,5.15.32s2.93.47,4.15.77c1.22.3,2.22.64,3.01,1v-2.01c0-2.49-.94-4.54-2.83-6.15-1.88-1.61-4.47-2.42-7.75-2.42-2.19,0-4.3.5-6.34,1.5s-3.72,2.33-5.06,3.97l-7.66-6.02c1.52-1.94,3.28-3.6,5.29-4.97,2.01-1.37,4.22-2.4,6.66-3.1,2.43-.7,4.98-1.05,7.66-1.05,7.11,0,12.52,1.64,16.23,4.92,3.71,3.28,5.56,8.08,5.56,14.41v28.63h-11.76v-4.74h-.73c-.85,1.09-1.91,2.11-3.19,3.05s-2.77,1.7-4.47,2.28-3.62.87-5.74.87v.02ZM323.54,93.36c2.43,0,4.48-.53,6.15-1.6,1.67-1.06,2.95-2.45,3.83-4.15.88-1.7,1.32-3.49,1.32-5.38-1.34-.67-2.86-1.2-4.56-1.6-1.7-.39-3.43-.59-5.2-.59-3.53,0-5.96.67-7.29,2.01-1.34,1.34-2.01,2.98-2.01,4.92,0,1.82.65,3.34,1.96,4.56s3.24,1.82,5.79,1.82h.01Z" style="fill: #fff;"/>
      <path d="M351.98,101.21v-46.5h11.21v6.2h.73c.79-1.46,1.84-2.75,3.15-3.88,1.31-1.12,2.84-2.02,4.6-2.69s3.65-1,5.65-1c1.22,0,2.31.09,3.28.27s1.82.43,2.55.73v11.94c-1.28-.49-2.54-.9-3.78-1.23-1.25-.33-2.57-.5-3.97-.5-2.37,0-4.42.59-6.15,1.78-1.73,1.19-3.05,2.8-3.97,4.83-.91,2.04-1.37,4.33-1.37,6.88v23.16h-11.94.01Z" style="fill: #fff;"/>
      <path d="M404.87,102.66c-4.68,0-8.86-1.06-12.54-3.19-3.68-2.13-6.56-5.04-8.66-8.75s-3.15-7.93-3.15-12.67c0-4.44,1.03-8.54,3.1-12.31,2.07-3.77,4.89-6.79,8.48-9.07s7.69-3.42,12.31-3.42c4.98,0,9.18,1.06,12.58,3.19,3.4,2.13,5.99,4.97,7.75,8.53,1.76,3.56,2.64,7.49,2.64,11.81,0,.97-.03,1.81-.09,2.51-.06.7-.12,1.2-.18,1.5h-39.94v-8.48h28.72c-.06-1.03-.36-2.1-.91-3.19s-1.31-2.1-2.28-3.01-2.14-1.66-3.51-2.23c-1.37-.58-2.93-.87-4.7-.87-2.31,0-4.42.61-6.34,1.82-1.91,1.22-3.42,2.9-4.51,5.06-1.09,2.16-1.64,4.73-1.64,7.7s.58,5.73,1.73,7.89c1.15,2.16,2.72,3.8,4.7,4.92,1.97,1.13,4.18,1.69,6.61,1.69,2.86,0,5.26-.62,7.2-1.87s3.46-2.81,4.56-4.7l9.67,4.74c-2.19,3.83-5.05,6.85-8.57,9.07-3.53,2.22-7.87,3.33-13.04,3.33h.01Z" style="fill: #fff;"/>
      <path d="M452.19,102.66c-3.71,0-7.19-.7-10.44-2.1s-6.08-3.48-8.48-6.25c-2.4-2.77-4.21-6.15-5.43-10.17l11.58-4.56c.85,3.22,2.34,5.93,4.47,8.11,2.13,2.19,4.92,3.28,8.39,3.28,1.7,0,3.31-.29,4.83-.87s2.75-1.44,3.69-2.6c.94-1.15,1.41-2.58,1.41-4.29s-.4-3.05-1.19-4.24c-.79-1.19-2.11-2.31-3.97-3.37-1.85-1.06-4.36-2.17-7.52-3.33l-4.01-1.46c-1.76-.67-3.54-1.5-5.33-2.51-1.79-1-3.43-2.25-4.92-3.74-1.49-1.49-2.69-3.21-3.6-5.15-.91-1.94-1.37-4.16-1.37-6.66,0-3.4.88-6.49,2.64-9.25,1.76-2.77,4.22-4.97,7.39-6.61,3.16-1.64,6.84-2.46,11.03-2.46s7.99.75,10.85,2.23c2.86,1.49,5.09,3.3,6.7,5.43,1.61,2.13,2.75,4.19,3.42,6.2l-10.85,4.56c-.36-1.22-.97-2.37-1.82-3.46s-1.95-1.97-3.28-2.64c-1.34-.67-2.95-1-4.83-1-1.76,0-3.34.29-4.74.87-1.4.58-2.49,1.37-3.28,2.37s-1.19,2.17-1.19,3.51c0,1.95.83,3.62,2.51,5.01,1.67,1.4,4.36,2.71,8.07,3.92l4.1,1.37c2.31.79,4.51,1.72,6.61,2.78,2.1,1.06,3.97,2.39,5.61,3.97,1.64,1.58,2.93,3.46,3.88,5.65.94,2.19,1.41,4.8,1.41,7.84,0,3.34-.67,6.26-2.01,8.75s-3.1,4.53-5.29,6.11-4.6,2.77-7.25,3.56c-2.64.79-5.24,1.19-7.8,1.19h0Z" style="fill: #fff;"/>
      <path d="M472.7,64.92v-10.21h8.57v10.21h-8.57ZM496.23,101.93c-4.8,0-8.57-1.38-11.31-4.15-2.74-2.77-4.1-6.58-4.1-11.44v-44.77h11.94v42.58c0,2.25.46,3.91,1.37,4.97s2.4,1.6,4.47,1.6c.97,0,1.88-.14,2.74-.41.85-.27,1.91-.8,3.19-1.6v11.67c-1.34.49-2.69.87-4.06,1.14s-2.78.41-4.24.41ZM492.31,64.92v-10.21h11.85v10.21h-11.85Z" style="fill: #fff;"/>
      <path d="M521.94,102.66c-3.28,0-6.19-.65-8.71-1.96-2.52-1.31-4.51-3.15-5.97-5.52-1.46-2.37-2.19-5.11-2.19-8.21s.83-5.99,2.51-8.3c1.67-2.31,3.92-4.1,6.75-5.38,2.83-1.28,5.97-1.91,9.44-1.91,1.88,0,3.6.11,5.15.32,1.55.21,2.93.47,4.15.77,1.22.3,2.22.64,3.01,1v-2.01c0-2.49-.94-4.54-2.83-6.15-1.88-1.61-4.47-2.42-7.75-2.42-2.19,0-4.3.5-6.34,1.5-2.04,1-3.72,2.33-5.06,3.97l-7.66-6.02c1.52-1.94,3.28-3.6,5.29-4.97,2.01-1.37,4.22-2.4,6.66-3.1,2.43-.7,4.98-1.05,7.66-1.05,7.11,0,12.52,1.64,16.23,4.92,3.71,3.28,5.56,8.08,5.56,14.41v28.63h-11.76v-4.74h-.73c-.85,1.09-1.91,2.11-3.19,3.05s-2.77,1.7-4.47,2.28c-1.7.58-3.62.87-5.74.87v.02ZM524.77,93.36c2.43,0,4.48-.53,6.15-1.6,1.67-1.06,2.95-2.45,3.83-4.15.88-1.7,1.32-3.49,1.32-5.38-1.34-.67-2.86-1.2-4.56-1.6-1.7-.39-3.43-.59-5.2-.59-3.53,0-5.96.67-7.29,2.01-1.34,1.34-2.01,2.98-2.01,4.92,0,1.82.65,3.34,1.96,4.56s3.24,1.82,5.79,1.82h0Z" style="fill: #fff;"/>
      <path d="M575.1,102.66c-4.74,0-8.95-1.05-12.63-3.15s-6.56-5.01-8.66-8.75-3.15-8.01-3.15-12.81,1.05-9.06,3.15-12.76c2.1-3.71,4.98-6.62,8.66-8.75s7.89-3.19,12.63-3.19c5.17,0,9.6,1.09,13.31,3.28s6.38,5.35,8.02,9.48l-10.94,4.56c-.97-2.13-2.34-3.69-4.1-4.7-1.76-1-3.86-1.5-6.29-1.5s-4.5.56-6.38,1.69c-1.88,1.13-3.37,2.69-4.47,4.7-1.09,2.01-1.64,4.41-1.64,7.2s.55,5.21,1.64,7.25,2.58,3.62,4.47,4.74c1.88,1.13,4.01,1.69,6.38,1.69,2.67,0,4.89-.59,6.66-1.78,1.76-1.19,3.19-2.81,4.29-4.88l10.67,4.74c-1.82,3.89-4.59,7.02-8.3,9.39-3.71,2.37-8.15,3.56-13.31,3.56h-.01Z" style="fill: #fff;"/>
      <path d="M599.44,101.21V35.92h11.94v65.28h-11.94ZM606.46,91.45v-14.77l22.25-21.97h14.68v.73l-36.93,36.02h0ZM630.08,101.21l-15.68-25.07,8.3-8.12,21.52,32.46v.73h-14.14Z" style="fill: #fff;"/>
    </g>
  </g>
</svg>